<svg width="120" height="24" viewBox="0 0 120 24" fill="#fff" xmlns="http://www.w3.org/2000/svg"><path d="M17.384 17.705q0 .536-.375.91l-1.822 1.822q-.375.375-.91.375t-.912-.375L9.428 16.5 5.49 20.436q-.375.375-.91.375t-.912-.375l-1.82-1.82q-.376-.376-.376-.912t.375-.91l3.938-3.94L1.847 8.92q-.375-.375-.375-.91t.375-.912l1.82-1.82q.376-.376.912-.376t.91.375l3.938 3.938 3.938-3.938q.375-.375.91-.375t.912.375l1.82 1.82q.376.376.376.912t-.375.91l-3.94 3.94 3.94 3.937q.374.375.374.91zm40.554 3.362l-8.732-8.72q-.496-.495-.496-1.21t.496-1.213l8.732-8.72Q58.434.71 59.15.71t1.212.495l1.004 1.004q.496.495.496 1.21t-.496 1.213l-6.51 6.51 6.51 6.495q.496.51.496 1.22t-.496 1.204l-1.004 1.004q-.496.496-1.212.496t-1.212-.496zm52.78-9.924q0 .696-.495 1.22l-8.732 8.718q-.495.497-1.204.497t-1.205-.496l-1.017-1.003q-.496-.522-.496-1.22 0-.71.496-1.204l6.51-6.51-6.51-6.495q-.496-.522-.496-1.22 0-.71.496-1.204L99.08 1.22q.483-.51 1.206-.51t1.205.51l8.733 8.72q.496.495.496 1.204z"/></svg>